<?xml version="1.0" standalone="no"?>
<!DOCTYPE svg PUBLIC "-//W3C//DTD SVG 20010904//EN"
 "http://www.w3.org/TR/2001/REC-SVG-20010904/DTD/svg10.dtd">
<svg version="1.0" xmlns="http://www.w3.org/2000/svg"
 width="1231.000000pt" height="1231.000000pt" viewBox="0 0 1231.000000 1231.000000"
 preserveAspectRatio="xMidYMid meet">
<metadata>
Created by potrace 1.14, written by Peter Selinger 2001-2017
</metadata>
<g transform="translate(0.000000,1231.000000) scale(0.100000,-0.100000)"
fill="#000000" stroke="none">
<path d="M5878 12305 c-2 -2 -52 -6 -113 -9 -143 -8 -206 -14 -340 -31 -60 -8
-134 -17 -164 -20 -30 -4 -63 -9 -75 -11 -12 -2 -61 -11 -111 -19 -182 -32
-634 -140 -715 -172 -8 -3 -19 -7 -25 -8 -5 -2 -39 -13 -75 -25 -36 -12 -72
-23 -80 -25 -38 -7 -385 -143 -540 -211 -75 -33 -396 -193 -455 -226 -22 -13
-71 -40 -109 -62 -98 -55 -334 -207 -451 -290 -55 -39 -109 -78 -121 -86 -35
-24 -247 -187 -269 -207 -11 -10 -67 -58 -125 -108 -112 -95 -460 -440 -547
-540 -28 -33 -60 -69 -70 -81 -86 -100 -148 -176 -220 -270 -12 -16 -31 -40
-42 -54 -11 -14 -52 -70 -90 -125 -38 -55 -73 -104 -78 -110 -8 -10 -60 -91
-148 -230 -69 -111 -71 -114 -99 -166 -14 -25 -36 -66 -50 -90 -50 -84 -169
-325 -233 -469 -179 -402 -312 -815 -408 -1270 -5 -27 -34 -184 -40 -220 -3
-19 -10 -60 -15 -90 -5 -30 -12 -80 -16 -110 -3 -30 -8 -68 -10 -85 -29 -237
-38 -398 -38 -720 0 -258 5 -414 19 -540 2 -22 7 -69 11 -105 10 -112 12 -130
34 -270 13 -88 19 -126 30 -185 5 -27 12 -66 15 -85 3 -19 8 -42 10 -50 2 -8
7 -30 10 -49 3 -19 8 -37 10 -41 2 -4 7 -20 10 -36 23 -127 69 -295 142 -524
48 -152 136 -391 178 -485 7 -16 37 -84 66 -150 44 -102 192 -402 224 -454 6
-9 30 -52 54 -96 24 -44 50 -89 58 -100 8 -11 49 -75 91 -142 105 -166 215
-322 341 -483 58 -74 108 -137 111 -140 3 -3 32 -36 65 -75 109 -128 129 -148
305 -325 188 -188 219 -217 380 -356 334 -288 808 -603 1220 -809 116 -58 178
-87 348 -161 17 -8 47 -21 65 -28 113 -50 465 -172 647 -225 173 -49 500 -127
580 -137 19 -2 58 -9 85 -14 28 -5 68 -12 90 -16 22 -3 51 -7 65 -9 36 -6 186
-24 250 -30 30 -3 71 -7 90 -10 154 -19 691 -26 915 -12 181 12 291 22 340 31
11 2 51 7 89 11 38 4 79 8 90 10 132 22 275 46 291 49 130 28 318 72 390 93
50 14 95 26 100 27 123 28 569 183 715 248 25 11 83 37 130 58 352 155 863
455 1155 678 17 12 41 31 55 41 168 127 346 280 508 436 76 73 260 257 307
309 185 199 477 580 627 816 23 36 56 88 74 115 17 28 44 73 59 100 15 28 31
55 35 60 25 33 197 368 244 475 16 36 42 94 58 130 51 110 137 336 198 520 53
160 133 439 144 500 2 14 13 63 24 110 22 90 28 124 37 180 3 19 7 46 10 60 3
14 7 40 10 59 3 19 7 37 9 40 2 3 7 31 10 61 3 30 8 64 10 75 2 11 7 52 11 90
5 39 9 79 11 90 1 11 4 40 7 65 34 296 30 1000 -7 1265 -8 59 -15 114 -21 170
-5 47 -18 131 -30 200 -10 53 -37 200 -40 215 -9 42 -57 243 -71 295 -8 33
-17 67 -19 75 -35 137 -131 428 -200 605 -174 447 -402 878 -678 1277 -82 120
-284 385 -345 453 -15 16 -56 64 -92 105 -36 41 -78 89 -95 106 -201 209 -357
362 -464 454 -35 30 -73 63 -85 73 -215 189 -607 464 -921 645 -111 64 -476
252 -489 252 -3 0 -37 15 -78 34 -74 34 -353 146 -364 146 -3 0 -20 6 -37 14
-32 14 -282 98 -303 102 -7 1 -54 14 -105 29 -52 15 -101 28 -109 30 -8 2 -49
12 -90 23 -72 19 -277 64 -350 77 -223 39 -204 36 -365 56 -49 6 -106 13 -125
14 -19 2 -73 6 -120 10 -47 4 -101 9 -120 12 -37 4 -668 12 -672 8z"/>
</g>
</svg>
